<svg xmlns="http://www.w3.org/2000/svg" xmlns:xlink="http://www.w3.org/1999/xlink" id="Layer_1" x="0px" y="0px" viewBox="0 0 800 158" style="enable-background:new 0 0 800 158;" xml:space="preserve"><style type="text/css">	.st0{fill:#0E1117;}	.st1{fill:#FFFFFF;}	.st2{fill:#006AFF;}</style><g>	<g>		<g>			<path class="st0" d="M223.7,132.6V30.2h40.5c1,0,2.2,0,3.5,0.1c1.4,0.1,2.7,0.2,4,0.5c8.3,1.3,14.6,4.9,18.9,10.7    c4.3,5.9,6.4,12.9,6.4,21c0,8.2-2.2,15.2-6.5,21c-4.3,5.9-10.6,9.4-18.9,10.7c-1.3,0.2-2.7,0.3-4.1,0.4c-1.4,0.1-2.5,0.1-3.5,0.1    h-27.8v37.9H223.7z M236.3,82.8h27.4c0.9,0,1.9,0,3.1-0.1c1.2-0.1,2.3-0.3,3.3-0.5c4.9-1.1,8.5-3.6,10.7-7.4    c2.2-3.9,3.3-7.9,3.3-12.2c0-4.3-1.1-8.3-3.3-12.2c-2.2-3.9-5.7-6.3-10.7-7.4c-1-0.2-2.1-0.4-3.3-0.5c-1.2-0.1-2.2-0.1-3.1-0.1    h-27.4V82.8z"></path>			<path class="st0" d="M340.4,134.6c-6.2,0-11.2-1.2-15.2-3.6s-7.1-5.4-9.4-9.1c-2.3-3.7-3.8-7.7-4.7-11.9    c-0.9-4.2-1.3-8.1-1.3-11.8V55.8h12.8v38.5c0,4.8,0.6,9.4,1.9,13.7c1.2,4.3,3.4,7.9,6.4,10.6c3,2.7,7.2,4.1,12.6,4.1    c6.4,0,11.5-2.2,15.3-6.5c3.9-4.3,5.8-10.9,5.8-19.8V55.8h12.7v76.8H366v-9.9C360.2,130.7,351.6,134.6,340.4,134.6z"></path>			<path class="st0" d="M397.2,132.6V30.2h12.7v32.6c2.8-2.8,6-5.1,9.8-6.7c3.8-1.6,8.1-2.4,12.9-2.4c7.1,0,13.2,1.8,18.4,5.3    c5.1,3.5,9.1,8.4,11.8,14.5c2.8,6.1,4.1,13,4.1,20.7s-1.4,14.6-4.1,20.7c-2.8,6.1-6.7,11-11.8,14.5c-5.1,3.6-11.3,5.4-18.5,5.4    c-5.2,0-9.8-1-13.8-2.9c-4-1.9-7.4-4.6-10.2-7.9v8.7H397.2z M431,123.2c5.1,0,9.3-1.3,12.6-3.8c3.3-2.6,5.8-6,7.5-10.4    c1.7-4.4,2.5-9.3,2.5-14.8c0-5.4-0.8-10.3-2.5-14.7c-1.6-4.4-4.2-7.8-7.5-10.4c-3.4-2.6-7.7-3.8-12.9-3.8    c-7.5,0-13.1,2.7-16.7,8.1c-3.6,5.4-5.4,12.3-5.4,20.8c0,8.4,1.8,15.4,5.4,20.8C417.6,120.4,423.3,123.2,431,123.2z"></path>			<path class="st0" d="M490,132.6V66.2h-13V55.8h13v-4.2c0-2.9,0.2-6,0.7-9.1c0.5-3.2,1.8-6,4.1-8.4c2.7-2.9,5.6-4.6,9-5.2    c3.3-0.5,6.4-0.8,9.3-0.8h9.7v10.5h-9c-7.4,0-11.2,3.7-11.2,11v6.2h37.9V28h12.7v104.6h-12.7V66.2h-37.9v66.4H490z"></path>			<path class="st0" d="M607.3,134.8c-7.6,0-14.2-1.7-19.8-5.2c-5.5-3.5-9.8-8.3-12.8-14.4c-3-6.1-4.4-13.1-4.4-21.1    c0-8.1,1.5-15.1,4.6-21.2c3-6.1,7.3-10.8,12.9-14.2c5.5-3.4,12.1-5.1,19.6-5.1c7.7,0,14.3,1.7,19.9,5.2    c5.5,3.4,9.8,8.2,12.8,14.3c3,6.1,4.4,13.1,4.4,21c0,8-1.5,15.1-4.5,21.2c-3,6.1-7.3,10.9-12.8,14.3    C621.5,133.1,614.9,134.8,607.3,134.8z M607.3,122.7c7.9,0,13.8-2.7,17.8-8c3.9-5.3,5.9-12.2,5.9-20.6c0-8.6-2-15.5-5.9-20.7    c-3.9-5.2-9.8-7.8-17.7-7.8c-8,0-13.9,2.6-17.8,7.9c-3.8,5.3-5.8,12.1-5.8,20.5c0,8.7,2,15.6,6,20.8    C593.7,120.1,599.6,122.7,607.3,122.7z"></path>			<path class="st0" d="M673.5,132.6l-23.5-76.9l12.6,0.1l17.1,56.2l17.3-56.2h11.2l17.2,56.2l17.2-56.2h12.5l-23.5,76.8h-10.5    l-18.6-58.4l-18.6,58.4H673.5z"></path>		</g>	</g>	<g>		<circle class="st0" cx="115.5" cy="78.6" r="73.1"></circle>		<g>			<path class="st1" d="M159,68.4c-10.9,10.9-21.6,21.6-32.4,32.4c3.7,3.7,7.2,7.2,10.8,10.8c10.8-10.8,21.5-21.5,32.4-32.4    C166,75.4,162.5,71.9,159,68.4z"></path>			<path class="st2" d="M126.4,57.2c3.6-3.6,7.1-7.1,10.7-10.7c-7.4-7.4-14.7-14.7-22-22c-3.6,3.6-7.1,7.1-10.7,10.7    C111.8,42.6,119.1,49.9,126.4,57.2z"></path>							<rect x="103.7" y="60.3" transform="matrix(0.7071 -0.7071 0.7071 0.7071 -11.1978 109.4751)" class="st2" width="45.7" height="15.8"></rect>			<g>				<g>					<path class="st1" d="M94.2,68.3c3.8-3.8,7.7-7.6,11-10.9c-3.9-3.9-7.7-7.7-11.5-11.5c-3.7,3.7-7.4,7.4-11,11      C85.9,60,89.9,64,94.2,68.3z"></path>					<path class="st1" d="M108.1,103.6L108.1,103.6c-6.3-6.3-25.9-25.9-36.1-36.1c-3.3,3.3-7.8,7.7-10.8,10.6      c18.2,18.2,36.4,36.4,54.5,54.5c3.6-3.6,7.1-7.1,10.7-10.7C120.3,115.8,114.2,109.7,108.1,103.6z"></path>				</g>			</g>		</g>	</g></g><g></g><g></g><g></g><g></g><g></g><g></g><g></g><g></g><g></g><g></g><g></g><g></g><g></g><g></g><g></g></svg>